# xmcd
#
# Track frame offsets:
#	180
#	14707
#	28675
#	38975
#	62351
#	65893
#	84122
#	101512
#	116010
#	131155
#	143321
#	159613
#	165707
#	181518
#	192721
#
# Disc length: 2902 seconds
#
# Revision: 0
# Processed by: cddbd v1.4PL0 Copyright (c) Steve Scherf et al.
# Submitted via: dBpowerAMP V4.0
#
DISCID=c90b540f
DTITLE=Bill Wharton  - Best of the Sauce Boss
DYEAR=1900
DGENRE=Blues
TTITLE0=Let the Big Dog Eat
TTITLE1=Boogie Woogie Washer Woman
TTITLE2=Mighty Crazy
TTITLE3=Open Up
TTITLE4=Jefferson County Hambone
TTITLE5=Keep It in Your Song
TTITLE6=Bayou Tango
TTITLE7=Let Me Play With Your Poodle
TTITLE8=Great Big Fanny
TTITLE9=Paco's Garden
TTITLE10=Havana Moon
TTITLE11=Rosie
TTITLE12=Sugar Bone
TTITLE13=Uncle Willie
TTITLE14=Bonus??
EXTD=
EXTT0=
EXTT1=
EXTT2=
EXTT3=
EXTT4=
EXTT5=
EXTT6=
EXTT7=
EXTT8=
EXTT9=
EXTT10=
EXTT11=
EXTT12=
EXTT13=
EXTT14=
PLAYORDER=
